<svg width="34" height="33" viewBox="0 0 34 33" fill="none" xmlns="http://www.w3.org/2000/svg">
<g clip-path="url(#clip0_1_856)">
<rect x="0.269531" width="33" height="33" rx="4" fill="white"/>
<path d="M31.207 4.71429V7.66071C31.207 10.2573 24.7403 12.375 16.7695 12.375C8.79881 12.375 2.33203 10.2573 2.33203 7.66071V4.71429C2.33203 2.11774 8.79881 0 16.7695 0C24.7403 0 31.207 2.11774 31.207 4.71429ZM31.207 11.3438V17.9732C31.207 20.5698 24.7403 22.6875 16.7695 22.6875C8.79881 22.6875 2.33203 20.5698 2.33203 17.9732V11.3438C5.43384 13.4799 11.1111 14.4744 16.7695 14.4744C22.428 14.4744 28.1052 13.4799 31.207 11.3438ZM31.207 21.6562V28.2857C31.207 30.8823 24.7403 33 16.7695 33C8.79881 33 2.33203 30.8823 2.33203 28.2857V21.6562C5.43384 23.7924 11.1111 24.7869 16.7695 24.7869C22.428 24.7869 28.1052 23.7924 31.207 21.6562Z" fill="#008000"/>
</g>
<defs>
<clipPath id="clip0_1_856">
<rect x="0.269531" width="33" height="33" rx="4" fill="white"/>
</clipPath>
</defs>
</svg>
