<svg width="34" height="33" viewBox="0 0 34 33" fill="none" xmlns="http://www.w3.org/2000/svg">
<g clip-path="url(#clip0_1_862)">
<rect x="0.269531" width="33" height="33" rx="4" fill="white"/>
<path d="M16.7696 32.7422C16.3377 32.7422 15.8995 32.6262 15.5192 32.407L11.5424 30.0545C10.9495 29.7193 11.2395 29.6033 11.4329 29.5389C12.2256 29.2617 12.3868 29.2037 13.2311 28.7203C13.3213 28.6687 13.4374 28.6881 13.5276 28.7461L16.5827 30.5572C16.6922 30.6217 16.8469 30.6217 16.95 30.5572L28.8545 23.6865C28.9641 23.6221 29.035 23.4932 29.035 23.3643V9.62285C29.035 9.4875 28.9641 9.36504 28.8481 9.29414L16.95 2.42988C16.8405 2.36543 16.6922 2.36543 16.5827 2.42988L4.69106 9.30058C4.57505 9.36504 4.50415 9.49394 4.50415 9.62929V23.3643C4.50415 23.4932 4.57505 23.6221 4.69106 23.6801L7.95239 25.5621C9.72485 26.4451 10.8077 25.4074 10.8077 24.3568V10.7959C10.8077 10.6025 10.9624 10.4543 11.1557 10.4543H12.6639C12.8508 10.4543 13.012 10.6025 13.012 10.7959V24.3633C13.012 26.7223 11.7229 28.0758 9.48638 28.0758C8.79673 28.0758 8.25532 28.0758 6.74712 27.3281L3.62759 25.5299C2.85415 25.0852 2.3772 24.2537 2.3772 23.3578V9.62285C2.3772 8.7334 2.85415 7.8955 3.62759 7.45078L15.5192 0.580075C16.2733 0.154684 17.2723 0.154684 18.02 0.580075L29.9245 7.45722C30.6979 7.90195 31.1749 8.73339 31.1749 9.62929V23.3643C31.1749 24.2537 30.6979 25.0852 29.9245 25.5363L18.02 32.407C17.6397 32.6262 17.2079 32.7422 16.7696 32.7422ZM26.3795 19.2006C26.3795 16.6289 24.6393 15.9457 20.9848 15.4623C17.2852 14.9725 16.9114 14.7211 16.9114 13.8574C16.9114 13.142 17.2272 12.1881 19.9665 12.1881C22.4092 12.1881 23.3116 12.7166 23.6854 14.3666C23.7176 14.5213 23.8594 14.6373 24.0206 14.6373H25.5674C25.6641 14.6373 25.7543 14.5986 25.8188 14.5277C25.8833 14.4568 25.9155 14.3602 25.909 14.2635C25.6706 11.4211 23.7821 10.0998 19.9665 10.0998C16.5698 10.0998 14.5459 11.5307 14.5459 13.9348C14.5459 16.5387 16.5633 17.2605 19.8182 17.5828C23.7176 17.9631 24.0206 18.5367 24.0206 19.3037C24.0206 20.6314 22.9506 21.1986 20.4434 21.1986C17.2916 21.1986 16.602 20.4059 16.37 18.8396C16.3442 18.6721 16.2024 18.5496 16.0284 18.5496H14.4879C14.2946 18.5496 14.1463 18.7043 14.1463 18.8912C14.1463 20.8957 15.2356 23.2869 20.4499 23.2869C24.2139 23.2805 26.3795 21.7916 26.3795 19.2006Z" fill="#008000"/>
</g>
<defs>
<clipPath id="clip0_1_862">
<rect x="0.269531" width="33" height="33" rx="4" fill="white"/>
</clipPath>
</defs>
</svg>
