<svg width="34" height="33" viewBox="0 0 34 33" fill="none" xmlns="http://www.w3.org/2000/svg">
<g clip-path="url(#clip0_1_853)">
<rect x="0.269531" width="33" height="33" rx="4" fill="white"/>
<path d="M27.2238 11.4211C26.8758 11.3051 26.5277 11.1955 26.1797 11.0924C26.2377 10.8539 26.2893 10.6154 26.3408 10.377C27.1336 6.53555 26.6115 3.44824 24.852 2.42989C23.1568 1.45664 20.3918 2.46856 17.5945 4.90489C17.3174 5.14336 17.0467 5.39473 16.7889 5.6461C16.6148 5.47852 16.4344 5.31094 16.2539 5.14981C13.3213 2.5459 10.3822 1.4502 8.62266 2.475C6.93398 3.45469 6.43125 6.36153 7.14023 9.99668C7.21113 10.3576 7.28848 10.7121 7.37871 11.073C6.96621 11.1891 6.56016 11.318 6.17988 11.4533C2.73809 12.6457 0.269531 14.5277 0.269531 16.4742C0.269531 18.4852 2.89922 20.5025 6.47637 21.7272C6.76641 21.8238 7.05645 21.9205 7.35293 22.0043C7.25625 22.391 7.17246 22.7713 7.09512 23.1645C6.41836 26.7416 6.94688 29.5775 8.63555 30.5508C10.3758 31.5563 13.302 30.525 16.1508 28.0307C16.3764 27.8309 16.602 27.6246 16.8275 27.4055C17.1111 27.6826 17.4076 27.9469 17.7041 28.2047C20.4627 30.5766 23.1891 31.5369 24.8713 30.5637C26.6115 29.5582 27.1787 26.5096 26.4439 22.7971C26.3859 22.5135 26.3215 22.2234 26.2506 21.927C26.4568 21.8689 26.6566 21.8045 26.8564 21.74C30.5754 20.509 33.2695 18.5174 33.2695 16.4742C33.2695 14.5213 30.7301 12.6264 27.2238 11.4211ZM18.5033 5.94903C20.901 3.86075 23.1375 3.04219 24.1559 3.62871C25.2451 4.25391 25.6641 6.78047 24.9809 10.0998C24.9357 10.3189 24.8906 10.5316 24.8326 10.7443C23.4018 10.4221 21.9516 10.19 20.4949 10.0611C19.657 8.86231 18.7418 7.71504 17.7492 6.63867C18.0006 6.4002 18.2455 6.17461 18.5033 5.94903ZM11.0461 19.8193C11.3748 20.3801 11.71 20.9408 12.0645 21.4887C11.059 21.3791 10.06 21.218 9.07383 21.0053C9.35742 20.0772 9.71191 19.1168 10.1244 18.1371C10.4209 18.7043 10.7238 19.265 11.0461 19.8193ZM9.09316 12.0656C10.0213 11.8594 11.0074 11.6918 12.0322 11.5629C11.6906 12.0979 11.3555 12.6457 11.0396 13.2C10.7238 13.7479 10.4145 14.3086 10.1244 14.8758C9.71836 13.9154 9.37676 12.9744 9.09316 12.0656ZM10.8592 16.5064C11.2846 15.617 11.7486 14.7469 12.2385 13.8897C12.7283 13.0324 13.2568 12.201 13.8111 11.3824C14.7779 11.3115 15.7641 11.2729 16.7695 11.2729C17.775 11.2729 18.7676 11.3115 19.7279 11.3824C20.2758 12.1945 20.7979 13.026 21.2941 13.8768C21.7904 14.7275 22.2545 15.5977 22.6928 16.4807C22.2609 17.3701 21.7969 18.2467 21.3006 19.1104C20.8107 19.9676 20.2887 20.799 19.7408 21.624C18.7805 21.6949 17.7814 21.7272 16.7695 21.7272C15.7576 21.7272 14.7779 21.6949 13.8305 21.6369C13.2697 20.8184 12.7412 19.9805 12.2449 19.1232C11.7486 18.266 11.291 17.3959 10.8592 16.5064ZM22.4994 19.8064C22.8281 19.2393 23.1375 18.6656 23.4404 18.0856C23.8529 19.0201 24.2139 19.9676 24.5297 20.9408C23.5307 21.1664 22.5187 21.3404 21.5004 21.4564C21.8484 20.915 22.1771 20.3607 22.4994 19.8064ZM23.4275 14.8758C23.1246 14.3086 22.8152 13.7414 22.493 13.1871C22.1771 12.6393 21.8484 12.0979 21.5068 11.5629C22.5445 11.6918 23.5371 11.8658 24.4652 12.0785C24.1687 13.0324 23.8207 13.9605 23.4275 14.8758ZM16.7824 7.62481C17.4592 8.35957 18.0973 9.13301 18.6902 9.93223C17.4141 9.87422 16.1314 9.87422 14.8553 9.93223C15.4869 9.10078 16.1379 8.32735 16.7824 7.62481ZM9.30586 3.67383C10.3887 3.04219 12.7928 3.94453 15.3258 6.1875C15.4869 6.3293 15.648 6.48399 15.8156 6.63867C14.8166 7.71504 13.8949 8.86231 13.0506 10.0611C11.5939 10.19 10.1502 10.4156 8.71934 10.7314C8.63555 10.4027 8.56465 10.0676 8.49375 9.73242C7.88789 6.61289 8.2875 4.26035 9.30586 3.67383ZM7.72676 20.6637C7.45605 20.5863 7.1918 20.5025 6.92754 20.4123C5.55469 19.9805 3.99492 19.2973 2.86699 18.4014C2.21602 17.9502 1.77773 17.2541 1.65527 16.4742C1.65527 15.2947 3.69199 13.7865 6.63105 12.7617C6.99844 12.6328 7.37227 12.5168 7.74609 12.4072C8.18437 13.8059 8.71289 15.1787 9.3252 16.5064C8.70645 17.8535 8.17148 19.2457 7.72676 20.6637ZM15.242 26.9801C14.1785 27.9533 12.9475 28.7268 11.6068 29.2553C10.8914 29.5969 10.0664 29.6291 9.33164 29.3391C8.30684 28.7461 7.88145 26.4709 8.46152 23.4094C8.53242 23.0484 8.60977 22.6875 8.7 22.333C10.1438 22.6424 11.6004 22.8551 13.0764 22.9646C13.9271 24.1699 14.8617 25.3236 15.8607 26.4064C15.6545 26.6063 15.4482 26.7996 15.242 26.9801ZM16.8211 25.4139C16.1637 24.7049 15.5063 23.9186 14.8682 23.0742C15.4869 23.1 16.125 23.1129 16.7695 23.1129C17.4334 23.1129 18.0844 23.1 18.7289 23.0678C18.1359 23.8863 17.4979 24.6662 16.8211 25.4139ZM25.2451 27.3475C25.1871 28.1338 24.8004 28.8686 24.1816 29.3648C23.1568 29.9578 20.9719 29.1844 18.6129 27.1605C18.3422 26.9285 18.0715 26.6772 17.7943 26.4193C18.7805 25.3301 19.6893 24.1764 20.5143 22.9646C21.9902 22.8422 23.4598 22.6166 24.91 22.2879C24.9744 22.5522 25.0324 22.8164 25.084 23.0742C25.3998 24.4664 25.4514 25.9166 25.2451 27.3475ZM26.4182 20.4188C26.2377 20.4768 26.0572 20.5348 25.8703 20.5863C25.4191 19.1813 24.8648 17.8084 24.2268 16.4742C24.8455 15.1594 25.3676 13.8059 25.8059 12.4201C26.141 12.5168 26.4633 12.6199 26.7727 12.723C29.7762 13.7543 31.8838 15.2883 31.8838 16.4613C31.8838 17.7246 29.6344 19.3553 26.4182 20.4188ZM16.7695 19.452C18.4002 19.452 19.7215 18.1307 19.7215 16.5C19.7215 14.8693 18.4002 13.548 16.7695 13.548C15.1389 13.548 13.8176 14.8693 13.8176 16.5C13.8176 18.1307 15.1389 19.452 16.7695 19.452Z" fill="#4F419A"/>
</g>
<defs>
<clipPath id="clip0_1_853">
<rect x="0.269531" width="33" height="33" rx="4" fill="white"/>
</clipPath>
</defs>
</svg>
